Coordinates
version=1
nRows=18
nColumns=22
inDegrees=yes

Units are S.I. units (second, meters, Newtons, ...)
If the header above contains a line with 'inDegrees', this indicates whether rotational values are in degrees (yes) or radians (no).

endheader
time	pelvis_tilt	pelvis_list	pelvis_rotation	pelvis_tx	pelvis_ty	pelvis_tz	hip_flexion_r	hip_adduction_r	hip_rotation_r	knee_angle_r	ankle_angle_r	subtalar_angle_r	hip_flexion_l	hip_adduction_l	hip_rotation_l	knee_angle_l	ankle_angle_l	subtalar_angle_l	lumbar_extension	lumbar_bending	lumbar_rotation
      0.85000000	    -14.00344879	      4.73166450	    -18.71212214	     -1.21619792	      0.94712610	     -0.25814174	     43.11950520	      0.77482686	     -1.57026880	    -59.36159980	     26.28668559	     -8.43659722	     18.68739287	      3.32686900	     -3.46435535	    -26.37886484	     30.18123828	     -6.50173483	     -4.91183119	     -2.23373896	      3.26025168
      0.86000000	    -14.32648417	      4.76416772	    -18.35050997	     -1.21150303	      0.94663086	     -0.25677570	     44.52552980	      0.67605687	     -1.71900706	    -59.76642568	     26.14013480	     -8.33309314	     18.46460945	      3.30994172	     -3.31243128	    -25.89414789	     30.33341949	     -6.21248232	     -5.18555538	     -2.14998780	      2.68446192
      0.87000000	    -14.62542549	      4.82517681	    -17.97375472	     -1.20662013	      0.94607321	     -0.25535564	     45.88645441	      0.51268361	     -1.83418040	    -59.97049449	     26.01904143	     -8.21656079	     18.19387287	      3.33135779	     -3.15427786	    -25.36871586	     30.44370458	     -5.94840798	     -5.48808864	     -2.10241937	      2.08798203
      0.88000000	    -14.92102752	      4.91928821	    -17.59537925	     -1.20153302	      0.94538501	     -0.25385847	     47.22432152	      0.28434065	     -1.93797403	    -59.98993965	     25.89966283	     -8.05284607	     17.90083659	      3.38031954	     -3.03053767	    -24.81469329	     30.54438030	     -5.69574353	     -5.78746316	     -2.09089871	      1.51521601
      0.89000000	    -15.22485798	      5.04260321	    -17.22947579	     -1.19623996	      0.94453202	     -0.25221925	     48.54331040	      0.01817520	     -2.01677194	    -59.83329913	     25.77555252	     -7.77650502	     17.59689601	      3.43998777	     -2.95870975	    -24.24064362	     30.66107677	     -5.41661948	     -6.06685335	     -2.11446403	      0.96300242
      0.90000000	    -15.44463956	      5.19558947	    -16.86332837	     -1.19062860	      0.94367765	     -0.25050291	     49.73508114	     -0.34184216	     -2.10093221	    -59.50565792	     25.64887493	     -7.54026009	     17.15447307	      3.55651260	     -2.89568599	    -23.58619256	     30.70623208	     -5.19862001	     -6.43134166	     -2.19499091	      0.41484112
      0.91000000	    -15.64346660	      5.38838941	    -16.50877849	     -1.18472585	      0.94267959	     -0.24867557	     50.87164330	     -0.76859683	     -2.18184951	    -59.02984673	     25.49031650	     -7.22521763	     16.65511245	      3.70743980	     -2.88768247	    -22.88174590	     30.75977827	     -4.93432122	     -6.79606858	     -2.32369944	     -0.10817518
      0.92000000	    -15.81420475	      5.61589400	    -16.18603675	     -1.17851777	      0.94154726	     -0.24669449	     51.93777045	     -1.23914423	     -2.25022346	    -58.41258414	     25.29990268	     -6.70686886	     16.08675064	      3.88143922	     -2.96554532	    -22.12510322	     30.85446123	     -4.52492026	     -7.16796604	     -2.50176715	     -0.57905166
      0.93000000	    -15.92464153	      5.88960006	    -15.86884318	     -1.17195331	      0.94032389	     -0.24463058	     52.89916781	     -1.79231504	     -2.32261908	    -57.67081381	     25.09281608	     -6.37346029	     15.39765297	      4.11969883	     -3.05642663	    -21.27500510	     30.87357883	     -4.20081129	     -7.57987125	     -2.74045278	     -1.06094492
      0.94000000	    -16.00756995	      6.19568198	    -15.59012672	     -1.16506590	      0.93893644	     -0.24238700	     53.79049139	     -2.37582442	     -2.39095115	    -56.82569105	     24.86682914	     -5.76377429	     14.63395484	      4.37885683	     -3.22759001	    -20.36827045	     30.94977603	     -3.65477264	     -7.99090621	     -3.03177597	     -1.47093926
      0.95000000	    -16.08564523	      6.53350732	    -15.29424959	     -1.15786308	      0.93734949	     -0.24012296	     54.63044849	     -3.02835321	     -2.49242410	    -55.89271342	     24.61715350	     -5.20447465	     13.82837205	      4.67902986	     -3.37728149	    -19.41614922	     30.98685068	     -3.14978738	     -8.38253339	     -3.34222108	     -1.89705489
      0.96000000	    -16.18240138	      6.88767400	    -14.96552398	     -1.15036675	      0.93551871	     -0.23785723	     55.43590932	     -3.74189261	     -2.64699061	    -54.88986831	     24.36921975	     -4.58996723	     13.01275673	      5.00246416	     -3.46734926	    -18.44266976	     31.03482411	     -2.64574459	     -8.73117045	     -3.65063524	     -2.33254498
      0.97000000	    -16.33345554	      7.22752913	    -14.55689725	     -1.14264353	      0.93340982	     -0.23566284	     56.22810604	     -4.51554856	     -2.88769729	    -53.83661039	     24.08606071	     -3.89515410	     12.25060624	      5.31515649	     -3.43592175	    -17.50978855	     31.09939157	     -2.17083812	     -9.01504824	     -3.90745225	     -2.82492504
      0.98000000	    -16.56995953	      7.52736470	    -14.03319144	     -1.13473453	      0.93099130	     -0.23362584	     57.02317916	     -5.35692808	     -3.25537164	    -52.75205123	     23.72662996	     -3.12082037	     11.59677890	      5.58846117	     -3.24130491	    -16.67162734	     31.20382359	     -1.76504311	     -9.21338139	     -4.06489999	     -3.38552960
      0.99000000	    -16.90459002	      7.76608638	    -13.37903228	     -1.12667571	      0.92825994	     -0.23174948	     57.82061115	     -6.25387953	     -3.75160141	    -51.66289007	     23.25174520	     -2.26017541	     11.08376746	      5.79659779	     -2.86028219	    -15.97285753	     31.35828427	     -1.44140949	     -9.31471802	     -4.09758960	     -4.04065820
      1.00000000	    -17.33098025	      7.93321033	    -12.59268717	     -1.11846789	      0.92523940	     -0.23002895	     58.60982474	     -7.20419796	     -4.36806791	    -50.60937388	     22.61536818	     -1.29794819	     10.71972644	      5.92946696	     -2.28440191	    -15.44545620	     31.57463101	     -1.19288723	     -9.32561330	     -3.99480941	     -4.77780784
      1.01000000	    -17.81365258	      8.02431011	    -11.72375391	     -1.11005466	      0.92199092	     -0.22833135	     59.35261739	     -8.16701050	     -5.06644969	    -49.62739724	     21.80121843	     -0.27057487	     10.46962302	      5.98204601	     -1.55691121	    -15.10138141	     31.86537312	     -1.00956777	     -9.26522771	     -3.77184498	     -5.57153069
      1.02000000	    -18.28544208	      8.05252866	    -10.85102877	     -1.10133652	      0.91861374	     -0.22646999	     59.99702870	     -9.09764443	     -5.79015409	    -48.77163153	     20.80824331	      0.77650308	     10.25193280	      5.96523786	     -0.77037565	    -14.91638654	     32.21412918	     -0.86788276	     -9.18736158	     -3.47474221	     -6.34742859
